<?xml version="1.0" standalone="no"?>
<!DOCTYPE svg PUBLIC "-//W3C//DTD SVG 20010904//EN"
 "http://www.w3.org/TR/2001/REC-SVG-20010904/DTD/svg10.dtd">
<svg version="1.0" xmlns="http://www.w3.org/2000/svg"
 width="1716.859898pt" height="1498.715394pt" viewBox="0 0 1716.859898 1498.715394"
 preserveAspectRatio="xMidYMid meet">

<g transform="translate(-119.971214,1835.970958) scale(0.100000,-0.100000)"
fill="#000000" stroke="none">
<path d="M16795 18345 c-137 -32 -160 -39 -268 -85 -248 -105 -448 -211 -907
-482 -74 -44 -144 -85 -155 -91 -11 -7 -33 -21 -50 -32 -16 -11 -41 -27 -55
-35 -80 -47 -430 -277 -440 -289 -3 -3 -50 -39 -105 -80 -384 -285 -793 -648
-831 -738 -14 -31 -45 -50 -64 -38 -24 15 3 167 46 261 71 156 163 258 376
415 158 116 226 174 216 184 -3 3 -14 2 -25 -4 -10 -6 -67 -29 -128 -52 -60
-23 -134 -50 -164 -62 -110 -42 -277 -197 -361 -337 -61 -100 -210 -406 -210
-432 -1 -22 -26 -48 -48 -48 -17 0 -22 8 -27 38 -16 101 -32 166 -42 169 -17
6 -88 -71 -144 -156 -27 -41 -49 -77 -49 -81 0 -12 -36 -40 -43 -33 -12 12 -7
100 9 165 40 162 135 380 219 503 28 40 43 71 38 76 -20 20 -181 -121 -267
-234 -55 -72 -150 -247 -175 -322 -7 -22 -19 -53 -26 -70 -19 -43 -40 -117
-60 -210 -33 -150 -76 -209 -134 -185 -33 13 -41 43 -41 150 1 188 46 336 173
562 21 37 34 69 28 72 -12 8 -140 -130 -192 -206 -80 -117 -141 -261 -192
-453 -41 -156 -53 -188 -78 -218 l-27 -32 -213 1 c-118 1 -459 3 -759 5 -404
3 -564 1 -620 -9 -41 -6 -102 -16 -135 -21 -33 -6 -100 -17 -150 -27 -155 -28
-260 -32 -615 -22 -434 13 -982 5 -1145 -16 -170 -22 -262 -36 -320 -48 -27
-5 -75 -14 -105 -18 -30 -5 -95 -16 -145 -25 -266 -45 -469 -45 -594 0 -145
52 -246 124 -496 350 -132 120 -220 193 -300 251 -67 47 -95 53 -58 11 131
-146 312 -370 370 -456 31 -47 76 -128 100 -180 24 -53 48 -104 54 -115 7 -12
7 -22 0 -29 -20 -20 -140 85 -406 358 -148 152 -301 302 -340 333 -38 31 -79
65 -89 75 -31 27 -184 127 -195 127 -25 0 -17 -21 22 -61 23 -24 83 -89 132
-144 50 -55 100 -111 113 -125 43 -46 169 -224 202 -285 18 -33 44 -77 58 -97
38 -59 18 -64 -53 -13 -35 25 -66 45 -69 45 -15 0 0 -28 79 -152 111 -174 204
-361 185 -373 -14 -9 -203 129 -275 200 -34 33 -95 98 -136 145 -41 46 -97
109 -125 140 -28 30 -83 93 -122 140 -40 47 -78 90 -84 95 -141 116 -204 158
-303 204 -38 18 -77 36 -85 40 -62 31 -291 83 -426 97 -79 7 -90 -7 -38 -49
57 -45 154 -148 154 -163 0 -19 -23 -22 -235 -28 -104 -3 -215 -10 -245 -16
-131 -27 -247 -58 -295 -79 -11 -5 -36 -16 -57 -25 -20 -9 -39 -16 -43 -16
-14 0 -120 -82 -120 -93 0 -17 298 -17 345 1 121 45 299 63 515 51 93 -6 224
-8 290 -7 116 3 120 4 123 26 2 12 -6 38 -19 58 -33 55 -16 61 83 30 112 -35
232 -105 327 -193 84 -77 125 -132 191 -257 53 -102 48 -118 -24 -72 -96 61
-196 102 -319 130 -96 22 -353 21 -421 -2 -59 -20 -68 -38 -29 -53 83 -33 119
-54 163 -95 28 -26 47 -50 44 -55 -3 -5 -60 -9 -127 -9 -67 -1 -142 -5 -167
-11 -25 -5 -61 -12 -80 -15 -64 -11 -214 -89 -291 -152 -98 -79 -240 -218
-364 -357 -54 -60 -117 -130 -140 -155 -22 -25 -68 -79 -100 -120 -33 -41 -62
-77 -66 -80 -3 -3 -72 -93 -154 -200 -236 -310 -599 -768 -754 -950 -134 -158
-413 -444 -509 -521 -143 -115 -393 -285 -536 -364 -124 -69 -184 -97 -351
-165 -49 -20 -133 -43 -264 -70 -124 -26 -339 -27 -390 -2 -66 33 -56 43 139
144 187 97 289 163 538 351 299 224 370 286 603 517 178 177 253 262 288 329
17 31 1 47 -30 31 -45 -23 -224 -144 -364 -245 -159 -114 -237 -165 -253 -165
-35 0 -16 54 69 190 51 83 64 115 51 124 -14 9 -184 -88 -291 -166 -51 -37
-97 -68 -102 -68 -19 0 -18 22 4 57 39 65 123 281 112 291 -3 3 -26 -6 -52
-20 -42 -23 -140 -58 -270 -98 -23 -7 -49 -10 -58 -6 -14 5 -12 12 15 51 31
45 34 75 8 75 -7 0 -31 -5 -53 -11 -22 -6 -60 -14 -85 -19 -25 -5 -72 -16
-105 -25 -121 -34 -275 -46 -275 -22 0 14 46 60 100 99 32 24 208 128 216 128
2 0 43 24 91 53 48 29 124 72 167 96 44 24 95 53 115 65 20 12 90 52 156 88
66 37 145 80 175 97 254 143 474 246 635 298 44 14 102 34 128 46 30 12 52 16
57 11 12 -12 -53 -91 -145 -175 -157 -145 -206 -199 -177 -199 10 0 217 61
301 89 84 27 101 27 98 -1 -2 -22 1 -23 51 -21 51 2 125 32 304 124 94 48 130
35 81 -29 -16 -20 -49 -75 -72 -122 -24 -47 -52 -98 -63 -113 -35 -49 -6 -48
58 1 106 81 313 317 544 617 124 161 431 537 492 601 16 18 26 34 21 37 -15
10 -167 -93 -238 -161 -114 -109 -264 -234 -276 -230 -6 2 32 61 85 131 53 71
96 135 96 143 0 25 -90 18 -143 -11 -48 -28 -69 -20 -44 15 38 55 204 224 297
303 170 145 251 227 225 227 -3 0 -24 -12 -46 -26 -35 -22 -203 -104 -214
-104 -6 0 -249 -151 -265 -165 -23 -19 -208 -145 -215 -145 -7 0 -443 -269
-580 -358 -265 -173 -642 -409 -720 -452 -33 -18 -64 -36 -70 -40 -5 -4 -37
-22 -70 -40 -33 -18 -74 -41 -92 -51 -18 -10 -63 -35 -100 -55 -77 -42 -220
-121 -273 -151 -19 -11 -62 -35 -95 -53 -33 -18 -77 -44 -97 -57 -21 -12 -40
-23 -43 -23 -3 0 -24 -12 -48 -27 -51 -32 -209 -123 -213 -123 -2 0 -55 -32
-116 -70 -62 -39 -122 -76 -133 -83 -47 -29 -172 -123 -198 -148 -88 -88 -100
-284 -41 -629 8 -47 22 -123 30 -170 69 -404 103 -498 223 -620 123 -125 233
-160 516 -160 105 0 206 -5 226 -10 46 -13 94 -65 182 -195 221 -326 323 -457
407 -521 86 -66 78 -75 -202 -248 -168 -103 -307 -176 -478 -252 -102 -45
-110 -56 -64 -99 76 -70 229 -105 460 -105 169 0 253 13 398 61 87 29 99 19
45 -38 -86 -89 -260 -204 -479 -315 -130 -66 -181 -84 -328 -114 -149 -31
-172 -39 -172 -58 0 -20 63 -65 123 -88 36 -14 81 -21 147 -23 78 -3 96 -6 98
-20 5 -23 -214 -238 -334 -327 -152 -113 -344 -223 -441 -252 -11 -4 -26 -13
-33 -20 -25 -31 2 -71 134 -199 l131 -129 -2 -58 c-2 -55 -9 -84 -70 -290 -33
-115 -87 -321 -123 -475 -99 -418 -140 -1123 -78 -1325 32 -103 54 -133 136
-184 42 -26 162 -70 277 -101 72 -20 322 -81 385 -94 25 -5 79 -17 120 -26
228 -50 246 -54 515 -105 101 -19 395 -70 525 -90 54 -8 138 -23 310 -55 47
-9 108 -20 135 -25 28 -5 84 -16 125 -25 41 -10 94 -21 118 -26 23 -5 97 -23
165 -40 346 -88 573 -128 915 -160 l132 -12 0 -37 c0 -20 -8 -63 -19 -96 -76
-239 -101 -392 -101 -620 0 -245 33 -397 127 -585 102 -204 291 -319 526 -319
25 0 56 -4 69 -9 13 -5 64 -50 113 -101 172 -176 277 -229 540 -273 92 -16
191 -25 600 -54 253 -17 459 -14 705 12 389 40 479 72 657 227 92 80 122 96
206 109 172 28 321 89 408 167 91 82 154 257 198 550 6 40 11 93 11 117 0 58
15 64 82 35 29 -12 86 -32 127 -45 186 -56 385 -147 421 -192 12 -15 52 -77
90 -138 88 -141 125 -184 208 -238 123 -81 424 -185 652 -227 25 -5 86 -16
135 -25 50 -9 119 -20 155 -25 257 -32 295 -47 580 -223 148 -92 309 -173 520
-262 224 -94 514 -151 865 -170 160 -9 251 -23 325 -50 150 -54 267 -85 435
-115 33 -6 154 -16 268 -22 295 -17 764 7 1022 52 33 6 87 16 120 22 112 19
281 65 300 80 5 4 15 8 21 8 7 0 43 14 79 31 223 103 406 254 525 434 89 133
79 126 275 203 66 26 167 97 227 160 48 50 148 189 148 206 0 3 11 29 24 58
54 121 74 182 117 348 34 132 69 365 69 459 0 63 11 206 31 386 11 100 20 159
43 285 9 47 26 159 37 250 39 323 0 439 -307 912 -80 123 -214 376 -214 405 0
7 8 16 18 21 16 9 140 25 272 37 36 3 92 10 125 15 33 5 121 17 195 25 429 49
655 112 729 202 44 54 58 124 37 195 -38 133 -216 276 -452 364 -38 14 -98 37
-134 51 -36 13 -78 28 -95 33 -91 25 -406 136 -570 202 -65 26 -223 119 -230
136 -6 16 52 52 85 52 70 0 170 58 158 91 -3 8 -52 39 -109 68 -206 107 -314
195 -403 331 -70 106 -127 233 -111 249 3 2 51 -41 108 -96 105 -103 179 -157
274 -199 50 -23 103 -31 115 -19 3 3 -37 70 -90 148 -186 277 -298 573 -319
838 -9 119 38 243 133 348 63 70 96 79 228 61 55 -7 141 -15 190 -17 l89 -4
-6 30 c-6 28 -211 365 -449 736 -113 178 -163 274 -149 288 7 7 49 -13 136
-66 69 -42 131 -77 138 -77 7 0 17 -4 23 -8 26 -23 202 -72 258 -72 83 0 55
55 -105 209 -71 68 -138 139 -149 156 -23 37 -26 64 -7 69 271 77 435 170 560
316 43 51 50 87 15 75 -41 -14 -319 -18 -378 -5 -195 42 -394 197 -664 514
-129 152 -132 154 -119 167 7 7 23 3 52 -15 22 -14 43 -26 46 -26 20 0 370
-243 465 -323 129 -109 186 -141 279 -155 130 -19 249 22 330 114 69 78 51
104 -71 104 -96 0 -252 41 -286 74 -20 20 -6 39 69 97 39 30 102 78 140 107
75 58 122 120 117 155 -3 22 -32 32 -158 57 -55 11 -132 35 -159 50 -14 7 -21
21 -21 40 0 25 12 39 76 89 87 69 126 111 207 223 55 78 68 108 46 108 -5 0
-49 -18 -95 -41 -142 -67 -281 -102 -291 -72 -2 6 40 60 94 120 84 92 223 275
286 376 20 32 67 118 67 123 0 2 -11 4 -24 4 -25 0 -68 -17 -251 -100 -90 -41
-191 -61 -320 -62 -112 -1 -125 1 -190 28 -42 18 -70 36 -70 44 0 20 78 57
135 64 240 33 402 69 473 108 115 63 194 138 233 222 39 84 32 102 -31 80 -36
-13 -99 -29 -212 -54 -116 -27 -189 1 -180 69 10 77 164 576 211 686 7 17 21
50 31 75 10 25 23 59 30 75 17 39 75 211 85 250 4 17 15 57 24 90 43 153 71
353 106 745 16 176 50 332 90 415 12 25 44 70 71 99 62 68 82 73 334 80 252 8
331 30 403 111 70 80 67 168 -12 327 -171 342 -403 539 -726 617 -25 6 -91 17
-146 26 -133 20 -551 20 -639 0z m605 -135 c161 -32 171 -35 335 -94 98 -35
143 -54 149 -65 12 -19 -15 -22 -66 -6 -29 9 -89 25 -133 36 -44 11 -100 25
-125 32 -62 17 -367 16 -450 -1 -115 -24 -271 -76 -350 -117 -146 -75 -218
-116 -325 -185 -66 -42 -174 -111 -240 -152 -395 -247 -724 -497 -1120 -852
-49 -44 -209 -198 -355 -343 -276 -274 -296 -292 -319 -293 -28 0 8 92 105
267 16 28 25 55 21 59 -10 11 -68 -19 -110 -55 -30 -27 -74 -43 -147 -54 -76
-11 102 255 296 443 134 130 203 189 366 313 222 169 560 389 868 567 41 24
118 69 170 101 268 162 637 345 755 375 143 36 188 41 380 43 163 1 218 -3
295 -19z m-1787 -1675 c-5 -7 -33 -31 -63 -54 -96 -72 -216 -182 -342 -315
-158 -166 -337 -344 -366 -364 -37 -24 -47 -3 -24 49 11 24 28 64 38 89 74
179 231 370 379 462 43 26 238 111 320 139 53 18 70 16 58 -6z m492 -425 c15
-6 25 -15 23 -21 -2 -6 -51 -36 -108 -66 -172 -90 -291 -166 -417 -267 -93
-73 -85 -86 50 -86 82 0 277 -22 310 -35 26 -11 21 -35 -8 -35 -13 0 -39 -6
-57 -14 -18 -8 -49 -21 -68 -29 -19 -9 -62 -27 -95 -42 -33 -14 -69 -30 -80
-35 -89 -37 -303 -154 -433 -236 -29 -19 -59 -34 -67 -34 -7 0 -16 -4 -19 -9
-8 -12 -99 -41 -131 -41 -14 0 -28 7 -32 16 -7 19 36 102 108 211 72 108 63
107 -153 -28 -78 -49 -123 -65 -133 -49 -19 30 220 309 349 408 34 26 67 52
75 59 7 8 72 56 145 108 164 117 288 176 449 215 80 20 251 26 292 10z m-4130
-290 c94 -6 242 -17 330 -25 88 -8 196 -17 240 -20 201 -13 309 -28 605 -85
107 -21 245 -45 305 -54 61 -10 130 -21 155 -26 25 -5 97 -14 160 -20 149 -15
185 -22 185 -40 0 -8 -53 -54 -117 -103 -65 -48 -118 -94 -118 -101 0 -28 102
-85 205 -113 69 -19 175 -46 265 -68 41 -10 80 -22 85 -27 14 -13 -34 -50
-117 -90 -42 -21 -68 -39 -68 -49 0 -9 55 -61 123 -115 157 -126 371 -341 467
-468 181 -242 334 -526 500 -933 34 -81 65 -157 70 -168 15 -33 56 -161 100
-310 73 -248 98 -303 240 -515 157 -234 223 -386 294 -680 47 -196 48 -225 43
-1035 -5 -736 -8 -825 -42 -1115 -9 -74 -20 -180 -26 -235 -24 -254 -36 -345
-42 -352 -14 -13 -41 12 -87 80 -58 85 -97 183 -115 283 -12 68 -12 93 1 179
8 55 19 116 24 135 15 60 39 181 50 260 22 149 44 258 82 410 37 145 40 169
48 370 14 338 12 745 -5 810 -17 66 -39 128 -65 183 -11 23 -20 45 -20 50 0 4
-10 23 -23 40 -13 18 -29 54 -36 81 -21 85 -66 170 -159 298 -196 269 -450
457 -621 458 l-63 0 -62 -65 c-63 -66 -76 -71 -76 -28 0 30 11 49 99 168 40
55 76 105 78 112 8 21 -63 117 -143 192 -95 89 -155 128 -254 167 -72 28 -82
29 -235 29 -157 0 -161 -1 -207 -27 -66 -40 -82 -38 -74 10 4 20 14 56 23 80
21 55 7 75 -35 50 -45 -26 -141 -148 -177 -223 -98 -207 -132 -433 -106 -695
19 -181 85 -476 142 -630 12 -30 24 -71 29 -90 8 -38 36 -123 76 -235 181
-496 364 -785 879 -1385 45 -52 129 -153 186 -225 58 -71 158 -195 223 -275
65 -80 136 -170 159 -200 23 -30 69 -89 102 -130 56 -70 277 -352 321 -411 66
-89 170 -226 181 -239 126 -153 768 -1032 809 -1108 49 -91 26 -88 -181 28
-321 179 -458 208 -941 196 -300 -7 -410 -18 -619 -65 -104 -23 -303 -86 -380
-120 -11 -5 -69 -28 -130 -51 -152 -58 -343 -153 -418 -207 -137 -100 -224
-222 -248 -350 -22 -115 -1 -342 51 -553 34 -138 48 -185 109 -365 142 -423
240 -644 376 -850 85 -128 246 -288 359 -355 171 -102 292 -137 641 -186 201
-27 235 -49 235 -149 0 -81 -56 -114 -275 -160 -44 -9 -109 -23 -145 -30 -36
-8 -114 -25 -175 -39 -60 -13 -126 -27 -145 -31 -19 -4 -66 -13 -105 -21 -38
-8 -99 -19 -134 -24 -35 -6 -67 -12 -71 -15 -8 -5 -44 -11 -300 -47 -139 -20
-194 -22 -545 -21 -637 1 -1029 45 -1385 155 -36 11 -78 24 -95 28 -115 31
-347 137 -573 261 -209 115 -602 473 -882 804 -352 415 -592 655 -720 718
-139 69 -244 20 -244 -113 1 -98 64 -185 189 -263 80 -50 127 -96 150 -148
143 -313 344 -582 548 -733 63 -46 260 -156 280 -156 3 0 36 -14 74 -31 37
-17 86 -39 108 -48 208 -92 255 -119 276 -158 24 -44 -10 -52 -144 -33 -40 6
-97 16 -127 21 -52 10 -84 17 -245 54 -73 17 -172 49 -290 92 -175 65 -305
188 -345 327 -10 35 -26 75 -35 90 -20 30 -93 86 -181 137 -86 51 -323 229
-387 292 -103 101 -180 219 -321 497 -112 219 -201 343 -425 589 -177 196
-453 398 -641 470 -30 12 -64 25 -75 30 -87 36 -291 75 -540 103 -165 18 -729
18 -850 -1 -290 -44 -508 -130 -721 -285 -114 -82 -178 -142 -311 -289 -68
-75 -138 -144 -155 -153 -32 -17 -43 -15 -183 26 -170 51 -498 100 -795 120
-224 15 -290 22 -295 30 -7 12 11 50 77 162 101 170 107 206 30 179 -37 -14
-213 -137 -309 -218 -50 -42 -93 -56 -93 -30 0 8 13 40 29 73 16 32 41 88 56
124 15 36 42 97 60 135 57 125 56 136 -17 110 -106 -39 -164 -56 -183 -53 -39
6 -32 69 25 225 61 166 60 191 -3 142 -54 -42 -126 -115 -202 -204 -33 -38
-78 -90 -101 -115 -22 -25 -71 -79 -109 -120 -37 -41 -79 -85 -94 -97 -29 -26
-61 -30 -61 -9 0 12 62 177 90 241 14 30 83 243 130 395 22 74 45 145 50 157
6 15 5 25 -5 33 -10 9 -22 6 -52 -13 -79 -50 -240 -135 -323 -171 -127 -55
-371 -115 -467 -116 -66 0 -73 2 -73 19 0 13 38 52 103 108 56 48 104 90 107
93 3 3 37 32 75 65 143 121 313 311 296 328 -10 10 -155 -17 -176 -33 -14 -11
-203 -56 -310 -75 -49 -9 -126 -15 -170 -13 -117 4 -114 17 41 130 376 275
592 475 582 540 -3 22 -42 37 -248 95 -130 36 -216 74 -396 173 -58 31 -129
94 -121 107 3 5 57 13 119 16 161 8 339 58 346 98 2 11 -41 37 -153 93 -203
100 -257 138 -240 166 7 11 75 34 145 50 128 29 201 62 347 156 124 80 352
232 458 304 116 79 155 99 210 107 40 5 45 3 45 -13 0 -40 -131 -224 -243
-341 -42 -44 -42 -63 1 -63 45 0 187 49 312 106 56 26 199 118 235 151 11 10
47 40 80 66 33 27 164 149 290 271 127 122 253 243 280 267 28 25 68 62 90 81
84 76 287 238 401 321 65 47 175 133 244 191 76 64 128 102 134 96 10 -10 -52
-136 -146 -293 -32 -55 -58 -100 -58 -102 0 -24 -284 -408 -389 -526 -213
-241 -497 -473 -746 -609 -33 -18 -76 -42 -95 -53 -52 -30 -218 -112 -275
-137 -27 -11 -59 -25 -70 -30 -85 -37 -198 -79 -280 -103 -27 -8 -75 -22 -105
-31 -30 -9 -84 -22 -120 -30 -89 -19 -130 -35 -130 -51 0 -17 80 -75 144 -104
139 -64 263 -84 484 -80 126 3 172 1 172 -8 0 -23 -75 -72 -322 -207 -38 -20
-68 -43 -68 -51 0 -20 94 -63 166 -76 35 -7 107 -9 175 -6 325 16 646 214
1135 699 81 80 147 138 153 134 13 -9 14 -46 2 -78 -5 -13 -16 -48 -26 -78
-20 -65 -21 -69 -75 -185 -23 -49 -59 -118 -81 -152 -21 -34 -39 -65 -39 -68
0 -8 -106 -151 -144 -194 -87 -99 -128 -140 -206 -205 -105 -89 -135 -110
-224 -161 -78 -45 -90 -65 -51 -83 49 -23 119 -15 345 38 76 18 201 64 290
107 63 31 239 147 320 212 30 24 60 48 67 53 25 20 20 -10 -11 -59 -98 -156
-287 -355 -426 -448 -183 -122 -417 -211 -613 -231 -38 -4 -60 -11 -64 -20
-12 -33 104 -119 206 -154 169 -57 423 -81 646 -62 66 5 114 5 120 0 14 -13
-149 -169 -202 -193 -44 -21 -51 -33 -31 -53 18 -18 188 -15 256 4 45 12 318
113 417 155 40 16 221 69 285 83 36 8 97 22 135 31 39 8 108 22 155 30 47 7
112 19 145 25 33 6 98 17 145 25 164 27 196 34 274 59 81 27 146 67 146 90 0
24 -45 54 -105 69 -110 28 -204 37 -431 44 -123 3 -224 10 -224 14 0 12 95 65
251 142 155 76 310 185 380 268 49 58 119 163 119 179 0 15 -7 13 -79 -24
-160 -82 -275 -136 -291 -136 -27 0 -13 40 83 233 99 199 134 275 151 322 20
56 108 246 172 370 214 420 465 733 750 936 44 31 99 67 124 81 216 116 494
119 617 5 83 -76 118 -137 213 -369 183 -445 279 -608 469 -799 213 -214 389
-303 681 -345 283 -40 519 15 726 171 127 95 315 297 502 537 73 94 251 360
298 443 21 39 49 88 61 110 95 165 233 469 285 629 123 377 137 605 59 1011
-37 190 -39 206 -56 365 -32 313 -72 476 -157 645 -134 268 -378 543 -643 726
-65 45 -259 159 -271 159 -1 0 -33 14 -71 31 -97 43 -103 46 -153 63 -95 32
-326 61 -430 54 -82 -5 -72 -24 41 -83 117 -61 177 -99 271 -169 186 -138 189
-156 28 -137 -187 21 -309 11 -280 -24 6 -8 21 -17 33 -21 11 -4 53 -27 91
-52 39 -25 109 -67 155 -95 50 -29 79 -53 74 -58 -5 -5 -47 -14 -94 -20 -84
-11 -207 -34 -264 -49 -16 -5 -59 -16 -95 -26 -233 -61 -431 -154 -587 -276
-85 -67 -266 -259 -255 -270 10 -10 11 -9 172 84 183 105 392 197 511 226 98
24 262 35 340 23 111 -17 218 -74 323 -172 109 -102 213 -259 204 -307 -6 -29
-48 -21 -67 13 -87 161 -181 248 -312 288 -100 30 -190 21 -369 -40 -326 -110
-770 -437 -1000 -738 -34 -44 -75 -97 -92 -118 -17 -20 -62 -83 -101 -140
-170 -248 -341 -460 -496 -612 -51 -50 -84 -76 -90 -70 -6 6 -2 35 10 75 41
137 69 271 69 323 0 59 -28 49 -125 -48 -88 -88 -111 -102 -102 -62 22 89 36
173 41 239 3 43 11 87 18 98 8 13 9 23 3 29 -17 17 -82 -37 -204 -169 -64 -68
-118 -122 -121 -120 -12 11 2 54 64 210 83 204 80 197 100 243 9 21 16 40 16
42 0 19 -42 -8 -145 -95 -115 -95 -179 -139 -189 -130 -2 3 7 41 21 85 13 44
33 109 44 145 28 90 86 235 117 289 60 107 64 121 34 121 -16 0 -175 -96 -322
-193 -30 -21 -58 -33 -63 -28 -10 10 72 161 149 274 70 101 107 174 94 182
-16 10 -74 -12 -204 -77 -69 -34 -123 -55 -128 -50 -11 11 6 49 56 127 81 128
133 199 192 268 34 39 60 75 58 79 -10 16 -73 7 -128 -17 -68 -30 -76 -31 -76
-5 0 21 29 76 102 194 33 52 46 82 40 88 -14 14 -224 -89 -279 -137 -24 -20
-47 -33 -53 -30 -12 7 62 156 121 248 21 31 70 95 109 141 38 46 70 86 70 90
0 17 -38 1 -121 -51 -108 -69 -126 -80 -204 -123 -33 -18 -77 -44 -99 -57 -28
-18 -41 -22 -49 -14 -8 8 -8 17 -1 29 6 9 19 32 30 51 36 65 197 296 255 366
31 39 114 126 183 195 69 69 126 133 126 142 0 16 -10 18 -87 18 -50 -1 -120
-9 -163 -19 -123 -31 -117 -4 23 100 43 33 125 87 183 121 57 35 104 68 104
74 0 8 -41 14 -117 19 -174 11 -197 33 -90 86 65 33 261 150 335 201 23 16 42
35 42 43 0 18 -31 35 -89 50 -92 23 -73 63 54 111 39 14 79 30 90 34 11 4 43
16 70 25 121 43 225 110 225 145 0 12 -17 29 -47 46 -180 101 -263 180 -410
389 -76 108 -116 176 -107 185 5 5 66 5 139 -1 136 -10 179 -8 310 17 730 137
1061 171 1569 160 489 -10 563 -21 703 -106 36 -22 66 -40 68 -40 2 0 59 -37
127 -83 205 -137 420 -305 683 -532 180 -156 231 -195 259 -195 73 0 56 101
-37 229 -61 83 -250 274 -362 365 -113 93 -209 162 -355 255 -55 36 -99 69
-97 75 5 15 78 42 152 56 33 7 76 17 95 23 107 32 596 46 915 27z m4389 -654
c63 -6 111 -16 113 -23 2 -6 -29 -34 -70 -61 -41 -28 -103 -73 -138 -101 -35
-29 -75 -58 -89 -65 -14 -7 -59 -31 -100 -52 -83 -43 -114 -56 -210 -85 -156
-48 -231 -60 -357 -56 -85 2 -103 5 -103 17 0 9 34 49 75 90 41 41 75 80 75
87 0 16 -32 16 -120 2 -313 -48 -318 -48 -225 37 112 103 186 145 319 179 189
49 544 63 830 31z m-10730 -282 c73 -18 207 -60 256 -78 112 -43 179 -70 300
-119 74 -30 164 -65 200 -77 36 -12 93 -35 128 -51 35 -16 65 -29 67 -29 6 0
171 -77 297 -138 65 -31 118 -63 118 -70 0 -26 -195 -1 -410 53 -165 41 -175
42 -153 6 46 -73 103 -195 95 -203 -12 -12 -97 30 -167 82 -27 20 -108 77
-180 126 -71 50 -190 133 -264 185 -73 51 -159 112 -190 133 -58 40 -95 71
-169 138 -64 59 -42 72 72 42z m10710 -186 c40 -8 66 -18 66 -25 0 -7 -6 -13
-14 -13 -8 0 -56 -22 -107 -48 -52 -26 -134 -63 -184 -82 -49 -18 -94 -37 -99
-42 -6 -4 -16 -8 -22 -8 -13 0 -93 -36 -274 -123 -105 -50 -168 -77 -181 -77
-20 0 -7 48 26 97 87 129 323 292 490 337 31 8 225 -2 299 -16z m-154 -1202
c41 -13 102 -31 135 -41 54 -15 207 -64 592 -187 73 -24 131 -47 129 -53 -1
-5 -18 -13 -37 -17 -19 -3 -54 -12 -79 -18 -77 -20 -187 -7 -361 44 -62 18
-313 143 -401 199 -31 21 -61 37 -66 37 -5 0 -21 9 -36 21 -56 44 8 52 124 15z
m-9912 -304 c5 -16 -195 -214 -303 -300 -103 -82 -103 -82 -215 -178 -148
-126 -244 -190 -390 -261 -74 -36 -144 -69 -155 -73 -59 -23 -112 -43 -130
-51 -74 -32 -324 -54 -339 -30 -3 5 31 34 77 64 88 59 425 267 432 267 3 0 35
19 72 41 79 48 195 147 188 159 -3 5 -31 14 -63 20 -257 48 -490 150 -619 269
-66 60 -41 63 167 21 74 -16 393 -40 513 -40 97 0 227 14 482 50 53 7 129 25
220 50 39 11 57 8 63 -8z m122 -477 c0 -8 -46 -51 -105 -100 -64 -53 -186
-158 -220 -189 -11 -10 -87 -75 -170 -144 -82 -70 -156 -133 -164 -140 -8 -8
-51 -39 -95 -70 -44 -32 -94 -67 -111 -79 -205 -148 -403 -266 -555 -332 -30
-12 -68 -29 -85 -36 -94 -41 -218 -73 -355 -91 -118 -16 -211 -15 -217 3 -2 6
38 35 89 64 51 28 171 104 266 168 256 172 568 370 721 456 96 55 192 112 251
150 80 51 266 146 425 215 66 29 163 72 215 95 83 38 110 45 110 30z m25 -355
c14 -22 -221 -271 -490 -518 -206 -191 -300 -284 -429 -427 -127 -141 -361
-375 -452 -452 -80 -68 -267 -194 -364 -245 -152 -80 -292 -121 -396 -116 -43
2 -59 7 -59 17 0 8 43 36 95 64 109 57 254 151 355 232 174 139 534 482 750
715 155 167 381 393 435 435 88 68 211 141 379 226 86 43 159 79 163 79 4 0
10 -5 13 -10z m8685 -115 c122 -24 146 -31 253 -85 113 -57 255 -176 234 -196
-3 -3 -54 18 -114 47 -115 56 -127 61 -186 79 -133 41 -293 52 -380 25 -169
-51 -290 -244 -372 -592 -15 -60 -16 -81 -6 -120 26 -109 62 -224 87 -280 8
-17 14 -34 14 -37 0 -4 12 -25 26 -47 14 -23 23 -47 20 -54 -6 -17 -131 -39
-154 -26 -9 5 -26 35 -37 68 -17 49 -20 81 -18 213 2 155 24 387 44 464 6 23
18 68 26 101 61 236 165 385 294 424 24 7 55 17 69 21 40 13 119 11 200 -5z
m-4608 -155 c155 -43 268 -119 361 -244 57 -77 137 -229 170 -326 51 -144 84
-223 160 -380 128 -265 139 -310 89 -358 -16 -15 -44 -39 -63 -53 -20 -15 -59
-62 -87 -105 -64 -96 -191 -244 -210 -244 -9 0 -11 7 -7 21 9 28 -48 81 -112
101 -59 19 -129 10 -343 -45 -165 -43 -269 -57 -415 -57 -313 0 -472 89 -768
430 -36 41 -86 89 -111 105 -25 17 -46 34 -46 39 0 15 102 105 142 127 70 36
77 32 182 -127 143 -218 277 -323 485 -382 72 -20 299 -22 396 -3 189 36 235
53 499 189 73 37 141 52 238 52 48 0 89 4 92 8 8 14 -18 99 -63 207 -24 55
-49 120 -58 145 -8 25 -21 59 -28 75 -35 83 -56 139 -80 210 -85 262 -233 415
-444 460 -103 21 -286 20 -397 -4 -267 -58 -427 -153 -722 -430 -201 -189
-285 -226 -194 -85 246 379 666 670 1007 698 93 7 258 -5 327 -24z m4673 -258
c86 -33 165 -109 195 -187 70 -181 45 -354 -74 -513 -41 -55 -73 -78 -141 -99
-67 -21 -84 -12 -47 25 107 108 152 219 152 374 0 125 -27 182 -119 251 -35
26 -70 47 -76 47 -7 0 -20 -16 -29 -35 -14 -30 -162 -176 -199 -196 -17 -10
-100 18 -126 42 -26 24 -26 45 -2 101 38 89 123 176 200 205 45 16 208 7 266
-15z m-4835 -132 c25 -6 63 -24 85 -39 112 -76 77 -152 -117 -259 -164 -89
-232 -83 -344 34 -39 41 -78 74 -87 74 -18 0 -95 -71 -120 -112 -27 -43 -23
-167 8 -262 40 -122 101 -205 210 -286 76 -57 121 -70 233 -70 154 0 227 33
356 164 74 74 95 101 199 251 35 50 69 90 77 90 9 0 19 -15 24 -37 18 -72 -44
-248 -124 -354 -53 -70 -117 -100 -297 -135 -189 -37 -329 -47 -385 -26 -24 8
-66 18 -95 21 -85 8 -158 51 -259 151 -105 103 -144 169 -152 257 -8 93 14
136 128 250 101 100 166 148 199 148 11 0 53 28 93 63 120 104 109 100 223 94
56 -3 121 -11 145 -17z m5279 -377 c28 -56 50 -143 51 -194 0 -79 -49 -168
-154 -273 -115 -116 -230 -154 -413 -136 -197 19 -365 42 -418 58 -49 14 -72
83 -39 116 18 18 61 20 131 7 129 -26 257 -42 339 -43 88 -1 94 0 155 35 148
85 240 214 274 387 9 41 32 90 43 90 5 0 18 -21 31 -47z m-254 -3941 c50 -4
171 -4 270 1 99 4 338 8 530 9 405 2 451 -4 563 -70 224 -133 436 -432 459
-648 3 -29 1 -54 -4 -57 -5 -3 -39 8 -74 25 -83 41 -91 44 -174 62 -115 25
-259 36 -465 36 -339 0 -889 -32 -1015 -60 -22 -5 -74 -16 -115 -25 -222 -47
-441 -135 -607 -242 -44 -29 -61 -15 -145 122 -44 72 -94 155 -111 185 -16 30
-39 71 -50 90 -115 202 -149 317 -111 375 48 73 267 168 484 209 31 6 443 -3
565 -12z m-7805 -392 c277 -34 395 -60 564 -124 164 -62 301 -150 399 -256 86
-93 191 -261 236 -380 12 -30 26 -64 30 -75 25 -56 78 -250 104 -385 76 -383
72 -619 -15 -885 -34 -105 -52 -145 -87 -200 -30 -46 -37 -53 -69 -61 -49 -13
-48 15 9 191 20 60 23 91 23 215 -1 124 -5 161 -28 254 -15 60 -35 125 -43
145 -106 243 -183 363 -331 514 -87 88 -161 147 -187 147 -15 0 -17 -8 -12
-67 3 -38 12 -106 21 -153 28 -140 47 -251 56 -315 5 -33 18 -121 29 -195 30
-209 53 -578 42 -685 -6 -56 -8 -60 -33 -63 -20 -2 -28 2 -33 20 -27 96 -125
306 -165 351 -59 67 -111 91 -215 95 -112 5 -128 -5 -184 -121 -42 -86 -61
-143 -81 -242 -15 -76 -40 -148 -54 -157 -6 -4 -20 -8 -32 -8 -33 0 -61 75
-118 320 -51 221 -80 488 -91 845 -9 279 -37 454 -85 533 -24 39 -35 40 -54 3
-34 -65 -50 -287 -49 -682 0 -207 5 -428 12 -490 6 -63 16 -166 22 -229 17
-172 25 -235 45 -341 18 -102 15 -129 -12 -129 -45 0 -95 67 -157 210 -27 65
-68 199 -102 340 -9 36 -20 81 -25 100 -13 52 -54 285 -79 445 -26 163 -32
190 -46 205 -39 38 -89 -52 -104 -190 -11 -102 1 -512 19 -605 5 -27 17 -90
26 -138 9 -48 14 -91 10 -94 -16 -17 -42 20 -81 113 -86 209 -136 247 -210
162 -43 -51 -60 -88 -81 -181 -24 -106 -16 -199 24 -276 39 -74 40 -91 8 -91
-63 0 -181 102 -224 194 -91 193 -141 517 -121 786 17 238 45 368 158 735 31
100 37 136 25 148 -27 27 -216 -216 -291 -373 -21 -46 -50 -110 -73 -165 -11
-29 -61 -178 -80 -240 -38 -128 -56 -379 -42 -580 5 -71 6 -134 2 -138 -11
-12 -57 14 -113 63 -97 86 -147 245 -147 469 1 280 73 517 256 840 45 79 157
243 198 291 138 157 259 262 413 359 46 28 85 51 87 51 3 0 35 14 73 31 66 30
80 35 134 57 58 23 274 68 384 80 115 13 445 14 545 2z m9019 -825 c0 -5 -20
-30 -43 -55 -133 -141 -187 -257 -189 -405 -1 -101 18 -155 75 -220 71 -82
131 -85 290 -17 46 20 58 20 58 -3 0 -20 -135 -151 -176 -170 -43 -20 -160
-24 -205 -7 -41 16 -98 71 -122 116 -19 37 -21 55 -20 188 2 153 14 221 56
303 61 121 281 336 276 270z m-772 -47 c68 -74 69 -187 5 -393 -57 -183 -209
-399 -337 -480 -78 -50 -136 -65 -247 -65 -140 0 -219 34 -234 102 -10 46 9
56 131 68 180 19 290 44 337 76 95 66 251 297 301 448 22 63 22 177 2 217 -26
49 4 68 42 27z m1301 -106 c6 -59 -42 -197 -96 -275 -31 -47 -68 -67 -120 -67
-57 0 -92 30 -92 81 0 36 7 46 93 130 110 109 186 171 201 166 6 -2 12 -18 14
-35z m-1896 -89 c39 -35 14 -108 -63 -185 -83 -83 -112 -93 -274 -92 -129 0
-145 3 -205 27 -89 37 -160 106 -146 142 6 16 46 20 62 7 5 -4 34 -17 64 -27
44 -16 82 -20 185 -20 125 0 132 1 178 28 27 16 72 53 100 82 56 58 70 64 99
38z m1898 -381 c0 -104 -41 -379 -74 -504 -99 -365 -209 -568 -346 -638 -98
-50 -288 -62 -555 -35 -158 16 -236 28 -322 52 -45 11 -53 17 -53 37 0 43 22
91 62 132 68 71 101 82 338 115 200 27 369 117 535 282 134 134 163 177 349
520 26 48 52 85 57 81 5 -3 9 -22 9 -42z m-5266 -1257 c15 -8 32 -15 37 -15 5
0 34 -12 66 -26 102 -46 121 -54 132 -54 6 0 19 -4 29 -9 55 -30 334 -109 547
-156 44 -9 94 -21 110 -25 17 -5 50 -11 75 -15 25 -3 65 -10 90 -15 62 -12
254 -37 380 -50 58 -6 247 -16 420 -21 173 -5 396 -14 495 -18 239 -12 641
-12 845 -1 219 12 541 48 619 70 20 5 47 10 61 10 37 0 173 46 265 89 116 55
223 94 240 87 31 -12 9 -69 -58 -149 -121 -146 -364 -261 -707 -336 -236 -51
-367 -66 -720 -81 -380 -16 -661 0 -830 48 -49 14 -153 53 -165 62 -10 7 -54
21 -174 55 -40 11 -104 15 -236 15 -169 0 -340 15 -475 41 -126 25 -322 79
-395 109 -16 7 -39 16 -50 21 -100 41 -260 122 -359 183 -67 40 -164 96 -216
124 -52 28 -96 55 -98 61 -5 16 38 13 72 -4z"/>
<path d="M11915 6043 c-26 -7 -55 -33 -55 -49 0 -7 12 -22 26 -33 35 -28 107
-28 152 -1 38 23 39 30 9 58 -24 22 -94 36 -132 25z"/>
<path d="M12270 5935 c-20 -21 -22 -28 -12 -50 10 -22 18 -25 61 -25 56 0 121
32 121 59 0 30 -22 41 -85 41 -53 0 -65 -4 -85 -25z"/>
<path d="M12701 5811 c-32 -24 -23 -64 18 -81 57 -23 172 16 158 55 -8 20 -72
45 -116 45 -20 0 -47 -9 -60 -19z"/>
<path d="M11853 5455 c-31 -22 -29 -41 11 -81 28 -28 41 -34 78 -34 55 0 86
26 69 58 -29 54 -118 86 -158 57z"/>
<path d="M12254 5285 c-66 -66 47 -138 134 -85 41 25 41 52 -1 84 -45 35 -99
35 -133 1z"/>
<path d="M12718 5160 c-46 -8 -68 -26 -68 -55 0 -50 73 -69 137 -36 42 21 56
41 47 66 -9 23 -65 35 -116 25z"/>
</g>
</svg>
